<?xml version="1.0" encoding="UTF-8" standalone="no"?>
<!DOCTYPE svg PUBLIC "-//W3C//DTD SVG 1.1//EN" "http://www.w3.org/Graphics/SVG/1.1/DTD/svg11.dtd">
<svg xmlns="http://www.w3.org/2000/svg" xmlns:xlink="http://www.w3.org/1999/xlink" version="1.1" width="1920pt" height="250pt" viewBox="0 0 1920 250">
<g enable-background="new">
<g>
<g id="Layer-1" data-name="Capa 1">
<clipPath id="cp0">
<path transform="matrix(1,0,0,-1,0,250)" d="M 0 0 L 1920 0 L 1920 250 L 0 250 Z "/>
</clipPath>
<g clip-path="url(#cp0)">
<filter id="blend_1"><feBlend mode="multiply" in2="BackgroundImage" in="SourceGraphic"/></filter>
<g opacity=".360001" filter="url(#blend_1)">
<clipPath id="cp1">
<path transform="matrix(1,0,0,-1,0,250)" d="M -19.0567 -252.67 L 2022.16 -252.67 L 2022.16 321.801 L -19.0567 321.801 Z "/>
</clipPath>
<g clip-path="url(#cp1)">
<path transform="matrix(1,0,0,-1,248.4301,341.91133)" d="M 0 0 C -98.937 40.582 -188.859 107.845 -267.268 199.921 L -267.487 200.178 L -224.616 413.712 L -223.695 412.058 C -223.524 411.75 -206.109 380.812 -167.063 338.159 C -131.027 298.794 -68.671 241.117 23.749 189.894 C 127.632 132.318 247.548 94.465 380.161 77.376 C 487.435 63.556 603.248 63.377 726.23 76.759 C 791.823 108.055 859.199 145.268 928.187 188.328 C 1026.635 249.776 1132.326 289.136 1242.325 305.315 C 1330.323 318.258 1421.256 316.477 1512.6 300.023 C 1668.089 272.015 1772.286 210.277 1773.321 209.657 L 1773.728 209.413 L 1712.598 -160.758 L 1711.646 -159.887 C 1710.681 -159.003 1613.396 -70.551 1469.524 6.45 C 1385.034 51.669 1301.255 84.143 1220.514 102.97 C 1119.614 126.499 1023.205 128.656 933.961 109.386 C 862.877 94.037 793.68 82.702 726.614 75.397 C 574.134 2.666 431.25 -38.141 299.936 -46.299 C 235.649 -50.293 173.821 -46.367 115.025 -34.608 C 75.231 -26.65 36.822 -15.103 0 0 " fill="#69c1de"/>
</g>
</g>
<path transform="matrix(1,0,0,-1,-1067.4838,-127.795108)" d="M 0 0 C 136.099 -9.145 263.571 -47.358 378.95 -113.612 C 573.755 -225.494 777.565 -258.077 984.756 -210.477 C 913.977 -182.344 844.425 -143.828 777.142 -106.567 C 677.64 -51.464 583.655 .584 491.391 17.74 C 402.75 34.213 315.559 40.757 232.239 37.19 C 153.581 33.824 75.468 21.313 0 0 M 990.227 -210.844 C 1120.637 -261.779 1229.561 -265.436 1332.852 -222.396 C 1394.972 -196.516 1456.207 -152.495 1514.876 -91.557 C 1578.762 -25.205 1642.327 63.984 1703.805 173.53 C 1727.728 216.146 1752.333 256.725 1776.973 294.203 C 1684.226 233.168 1595.8 157.54 1493.609 70.138 C 1480.724 59.118 1467.581 47.877 1454.133 36.409 C 1305.856 -90.029 1149.787 -173.208 990.227 -210.844 M 1354.824 -214.236 C 1347.711 -217.685 1340.59 -220.895 1333.452 -223.871 C 1229.139 -267.337 1119.168 -263.413 987.372 -211.512 C 778.931 -259.997 573.916 -227.528 378.001 -115.009 C 261.547 -48.139 132.752 -9.887 -4.808 -1.316 L -4.699 -.509 L -4.898 .263 C 72.106 22.398 151.901 35.366 232.271 38.806 C 315.724 42.378 403.049 35.825 491.819 19.328 C 584.35 2.121 678.447 -49.988 778.068 -105.157 C 845.979 -142.766 916.197 -181.652 987.611 -209.816 C 1147.684 -172.511 1304.273 -89.274 1453.041 37.582 C 1466.487 49.047 1479.63 60.29 1492.514 71.308 C 1595.96 159.783 1685.297 236.193 1779.346 297.665 L 1779.797 297.008 L 1780.511 296.61 C 1755.189 258.281 1729.883 216.638 1705.298 172.841 C 1643.746 63.166 1580.091 -26.144 1516.1 -92.607 C 1463.992 -146.728 1409.834 -187.558 1354.824 -214.236 " fill="#8dd7f3"/>
<path transform="matrix(1,0,0,-1,1358.8508,192.4509)" d="M 0 0 L -844.25 0 L -844.25 129.326 L -41.76 129.326 C -18.696 129.326 0 110.63 0 87.567 Z " fill="#3ec7f4"/>
</g>
<text fill="#146eb1" xml:space="preserve" transform="matrix(1 0 -0 1 0 250)" font-size="45.6087" font-family="Gotham"><tspan y="-105.4707" x="606.8232 638.9773 656.9015 683.35458 713.04586 739.4989 767.2746 792.08578 804.6282 830.80758 843.35 869.80307 892.1057">Credenciales </tspan></text>
<text fill="#ffffff" xml:space="preserve" transform="matrix(1 0 -0 1 0 250)" font-size="45.6087" font-family="Gotham"><tspan y="-105.4707" x="903.599 929.3679 955.5473 981.2706 993.81307 1016.1157 1027.6091 1055.02 1066.5134 1097.7098 1124.1629 1167.3087 1179.8511 1202.1537 1228.6067">Taxis y Remises</tspan></text>
<clipPath id="cp2">
<path transform="matrix(1,0,0,-1,0,250)" d="M 0 0 L 1920 0 L 1920 250 L 0 250 Z "/>
</clipPath>
<g clip-path="url(#cp2)">
<path transform="matrix(1,0,0,-1,272.6821,140.8416)" d="M 0 0 L -11.189 -3.73 L -137.996 -3.73 L -145.456 0 L -119.348 29.837 L -115.619 33.567 L -33.567 33.567 L -26.107 29.837 Z " fill="#e4e4e4"/>
<path transform="matrix(1,0,0,-1,153.3339,111.0045)" d="M 0 0 L -26.107 -29.837 L 108.159 -29.837 L 82.052 0 Z " fill="#dbdcda"/>
<path transform="matrix(1,0,0,-1,209.2784,96.086)" d="M 0 0 L 0 -3.73 L -18.648 -3.73 L -22.378 0 L -18.648 14.919 L -3.73 14.919 Z " fill="#adb1b1"/>
<path transform="matrix(1,0,0,-1,246.5747,111.0045)" d="M 0 0 L -93.241 0 L -93.241 7.459 C -93.241 11.579 -89.901 14.919 -85.781 14.919 L -7.459 14.919 C -3.34 14.919 0 11.579 0 7.459 Z " fill="#f6d54f"/>
<path transform="matrix(1,0,0,-1,0,250)" d="M 190.63 142.725 L 205.54901 142.725 L 205.54901 101.699008 L 190.63 101.699008 Z " fill="#f6d54f"/>
<path transform="matrix(1,0,0,-1,0,250)" d="M 183.171 138.995 L 190.63 138.995 L 190.63 109.158 L 183.171 109.158 Z " fill="#e4e4e4"/>
<path transform="matrix(1,0,0,-1,309.9784,181.8675)" d="M 0 0 L -201.4 0 L -201.4 29.837 C -201.4 36.016 -196.39 41.026 -190.211 41.026 L -37.296 41.026 L 0 29.837 Z " fill="#f6d54f"/>
<path transform="matrix(1,0,0,-1,108.5784,178.13791)" d="M 0 0 L 201.4 0 C 205.519 0 208.859 -3.34 208.859 -7.459 C 208.859 -11.579 205.519 -14.919 201.4 -14.919 L 0 -14.919 C -4.119 -14.919 -7.459 -11.579 -7.459 -7.459 C -7.459 -3.34 -4.119 0 0 0 " fill="#dbdcda"/>
<path transform="matrix(1,0,0,-1,0,250)" d="M 175.712 97.97 L 183.171 97.97 L 183.171 90.511 L 175.712 90.511 Z " fill="#666f74"/>
<path transform="matrix(1,0,0,-1,0,250)" d="M 183.171 90.51 L 190.63 90.51 L 190.63 83.051 L 183.171 83.051 Z " fill="#666f74"/>
<path transform="matrix(1,0,0,-1,0,250)" d="M 190.63 97.97 L 198.089 97.97 L 198.089 90.511 L 190.63 90.511 Z " fill="#666f74"/>
<path transform="matrix(1,0,0,-1,0,250)" d="M 198.089 90.51 L 205.548 90.51 L 205.548 83.051 L 198.089 83.051 Z " fill="#666f74"/>
<path transform="matrix(1,0,0,-1,0,250)" d="M 205.549 97.97 L 213.008 97.97 L 213.008 90.511 L 205.549 90.511 Z " fill="#666f74"/>
<path transform="matrix(1,0,0,-1,0,250)" d="M 213.008 90.51 L 220.467 90.51 L 220.467 83.051 L 213.008 83.051 Z " fill="#666f74"/>
<path transform="matrix(1,0,0,-1,0,250)" d="M 220.467 97.97 L 227.926 97.97 L 227.926 90.511 L 220.467 90.511 Z " fill="#666f74"/>
<path transform="matrix(1,0,0,-1,0,250)" d="M 227.927 90.51 L 235.386 90.51 L 235.386 83.051 L 227.927 83.051 Z " fill="#666f74"/>
<path transform="matrix(1,0,0,-1,0,250)" d="M 235.386 97.97 L 242.845 97.97 L 242.845 90.511 L 235.386 90.511 Z " fill="#666f74"/>
<path transform="matrix(1,0,0,-1,119.7673,140.8416)" d="M 0 0 L 7.459 0 L 7.459 -11.189 C 7.459 -15.308 4.119 -18.648 0 -18.648 L -11.189 -18.648 L -11.189 -11.189 C -11.189 -5.01 -6.179 0 0 0 " fill="#b8e4f0"/>
<path transform="matrix(1,0,0,-1,160.7932,193.0564)" d="M 0 0 C 0 -10.3 -8.348 -18.648 -18.648 -18.648 C -28.947 -18.648 -37.296 -10.3 -37.296 0 C -37.296 10.298 -28.947 18.648 -18.648 18.648 C -8.348 18.648 0 10.298 0 0 " fill="#e4e4e4"/>
<path transform="matrix(1,0,0,-1,295.0598,193.0564)" d="M 0 0 C 0 -10.3 -8.348 -18.648 -18.648 -18.648 C -28.947 -18.648 -37.296 -10.3 -37.296 0 C -37.296 10.298 -28.947 18.648 -18.648 18.648 C -8.348 18.648 0 10.298 0 0 " fill="#e4e4e4"/>
<path transform="matrix(1,0,0,-1,142.145,178.13791)" d="M 0 0 C -8.239 0 -14.919 -6.68 -14.919 -14.919 C -14.919 -23.159 -8.239 -29.837 0 -29.837 C 8.241 -29.837 14.919 -23.159 14.919 -14.919 C 14.919 -6.68 8.241 0 0 0 M 0 -37.296 C -12.358 -37.296 -22.378 -27.278 -22.378 -14.919 C -22.378 -2.56 -12.358 7.459 0 7.459 C 12.36 7.459 22.378 -2.56 22.378 -14.919 C 22.367 -27.273 12.354 -37.285 0 -37.296 " fill="#9c9fa0"/>
<path transform="matrix(1,0,0,-1,142.145,200.5156)" d="M 0 0 C -4.119 0 -7.459 3.34 -7.459 7.459 C -7.459 11.579 -4.119 14.919 0 14.919 C 4.119 14.919 7.459 11.579 7.459 7.459 C 7.459 3.34 4.119 0 0 0 " fill="#d0d2d1"/>
<path transform="matrix(1,0,0,-1,276.4117,178.13791)" d="M 0 0 C -8.239 0 -14.919 -6.68 -14.919 -14.919 C -14.919 -23.159 -8.239 -29.837 0 -29.837 C 8.241 -29.837 14.919 -23.159 14.919 -14.919 C 14.919 -6.68 8.241 0 0 0 M 0 -37.296 C -12.358 -37.296 -22.378 -27.278 -22.378 -14.919 C -22.378 -2.56 -12.358 7.459 0 7.459 C 12.36 7.459 22.378 -2.56 22.378 -14.919 C 22.367 -27.273 12.354 -37.285 0 -37.296 " fill="#9c9fa0"/>
<path transform="matrix(1,0,0,-1,276.4117,200.5156)" d="M 0 0 C -4.119 0 -7.459 3.34 -7.459 7.459 C -7.459 11.579 -4.119 14.919 0 14.919 C 4.119 14.919 7.459 11.579 7.459 7.459 C 7.459 3.34 4.119 0 0 0 " fill="#d0d2d1"/>
<path transform="matrix(1,0,0,-1,149.6043,193.0564)" d="M 0 0 C 0 -4.119 -3.34 -7.459 -7.459 -7.459 C -11.579 -7.459 -14.919 -4.119 -14.919 0 C -14.919 4.119 -11.579 7.459 -7.459 7.459 C -3.34 7.459 0 4.119 0 0 " fill="#146eb1"/>
<path transform="matrix(1,0,0,-1,283.871,193.0564)" d="M 0 0 C 0 -4.119 -3.34 -7.459 -7.459 -7.459 C -11.579 -7.459 -14.919 -4.119 -14.919 0 C -14.919 4.119 -11.579 7.459 -7.459 7.459 C -3.34 7.459 0 4.119 0 0 " fill="#146eb1"/>
<path transform="matrix(1,0,0,-1,309.9784,189.3268)" d="M 0 0 L -11.524 0 C -11.968 2.628 -12.881 5.154 -14.217 7.459 L 0 7.459 C 2.06 7.459 3.73 5.789 3.73 3.73 C 3.73 1.67 2.06 0 0 0 M -33.567 -18.648 C -41.805 -18.648 -48.485 -11.97 -48.485 -3.73 C -48.485 4.509 -41.805 11.189 -33.567 11.189 C -25.326 11.189 -18.648 4.509 -18.648 -3.73 C -18.648 -11.97 -25.326 -18.648 -33.567 -18.648 M -55.608 0 L -145.791 0 C -146.235 2.628 -147.147 5.154 -148.484 7.459 L -52.916 7.459 C -54.253 5.154 -55.165 2.628 -55.608 0 M -167.833 -18.648 C -176.072 -18.648 -182.752 -11.97 -182.752 -3.73 C -182.752 4.509 -176.072 11.189 -167.833 11.189 C -159.593 11.189 -152.915 4.509 -152.915 -3.73 C -152.915 -11.97 -159.593 -18.648 -167.833 -18.648 M -189.874 0 L -201.4 0 C -203.46 0 -205.13 1.67 -205.13 3.73 C -205.13 5.789 -203.46 7.459 -201.4 7.459 L -187.183 7.459 C -188.519 5.154 -189.432 2.628 -189.874 0 M -197.67 26.107 L -190.211 26.107 C -184.03 26.107 -179.022 31.115 -179.022 37.296 L -179.022 44.756 L -37.844 44.756 L -18.648 38.997 L -18.648 29.837 C -18.648 25.718 -15.308 22.378 -11.189 22.378 L -3.73 22.378 L -3.73 14.919 L -21.221 14.919 C -28.701 19.89 -38.433 19.89 -45.912 14.919 L -155.488 14.919 C -162.967 19.89 -172.699 19.89 -180.179 14.919 L -197.67 14.919 Z M -197.67 37.296 C -197.67 41.416 -194.33 44.756 -190.211 44.756 L -186.481 44.756 L -186.481 37.296 C -186.481 35.237 -188.151 33.567 -190.211 33.567 L -197.67 33.567 Z M -154.951 74.593 L -123.078 74.593 L -123.078 52.215 L -174.546 52.215 Z M -108.159 52.215 L -115.618 52.215 L -115.618 74.593 L -108.159 74.593 Z M -152.915 85.781 C -152.915 87.841 -151.245 89.511 -149.185 89.511 L -70.863 89.511 C -68.803 89.511 -67.133 87.841 -67.133 85.781 L -67.133 82.052 L -152.915 82.052 Z M -116.434 104.43 L -107.342 104.43 L -105.477 96.97 L -118.299 96.97 Z M -45.5 52.215 L -100.7 52.215 L -100.7 74.593 L -65.097 74.593 Z M -11.189 36.759 L -3.73 34.521 L -3.73 29.837 L -11.189 29.837 Z M 3.73 14.232 L 3.73 37.296 C 3.73 38.943 2.65 40.396 1.071 40.869 L -13.427 45.222 C -13.463 45.222 -13.509 45.244 -13.545 45.258 L -35.177 51.749 L -59.674 79.724 L -59.674 85.781 C -59.674 91.96 -64.682 96.97 -70.863 96.97 L -97.786 96.97 L -100.811 109.064 C -101.226 110.725 -102.718 111.889 -104.43 111.889 L -119.348 111.889 C -121.058 111.889 -122.55 110.725 -122.965 109.064 L -125.99 96.97 L -149.185 96.97 C -155.364 96.97 -160.374 91.96 -160.374 85.781 L -160.374 79.724 L -184.445 52.215 L -190.211 52.215 C -198.45 52.215 -205.13 45.535 -205.13 37.296 L -205.13 14.232 C -210.263 12.424 -213.345 7.175 -212.421 1.812 C -211.5 -3.553 -206.843 -7.47 -201.4 -7.459 L -189.874 -7.459 C -188.064 -18.222 -178.747 -26.104 -167.833 -26.104 C -156.919 -26.104 -147.601 -18.222 -145.791 -7.459 L -55.608 -7.459 C -53.797 -18.222 -44.481 -26.104 -33.567 -26.104 C -22.653 -26.104 -13.334 -18.222 -11.524 -7.459 L 0 -7.459 C 5.443 -7.47 10.1 -3.553 11.023 1.812 C 11.945 7.175 8.863 12.424 3.73 14.232 " fill="#146eb1"/>
<path transform="matrix(1,0,0,-1,0,250)" d="M 175.712 97.97 L 183.171 97.97 L 183.171 90.511 L 175.712 90.511 Z " fill="#146eb1"/>
<path transform="matrix(1,0,0,-1,0,250)" d="M 183.171 90.51 L 190.63 90.51 L 190.63 83.051 L 183.171 83.051 Z " fill="#146eb1"/>
<path transform="matrix(1,0,0,-1,0,250)" d="M 190.63 97.97 L 198.089 97.97 L 198.089 90.511 L 190.63 90.511 Z " fill="#146eb1"/>
<path transform="matrix(1,0,0,-1,0,250)" d="M 198.089 90.51 L 205.548 90.51 L 205.548 83.051 L 198.089 83.051 Z " fill="#146eb1"/>
<path transform="matrix(1,0,0,-1,0,250)" d="M 205.549 97.97 L 213.008 97.97 L 213.008 90.511 L 205.549 90.511 Z " fill="#146eb1"/>
<path transform="matrix(1,0,0,-1,0,250)" d="M 213.008 90.51 L 220.467 90.51 L 220.467 83.051 L 213.008 83.051 Z " fill="#146eb1"/>
<path transform="matrix(1,0,0,-1,0,250)" d="M 220.467 97.97 L 227.926 97.97 L 227.926 90.511 L 220.467 90.511 Z " fill="#146eb1"/>
<path transform="matrix(1,0,0,-1,0,250)" d="M 227.927 90.51 L 235.386 90.51 L 235.386 83.051 L 227.927 83.051 Z " fill="#146eb1"/>
<path transform="matrix(1,0,0,-1,0,250)" d="M 235.386 97.97 L 242.845 97.97 L 242.845 90.511 L 235.386 90.511 Z " fill="#146eb1"/>
<path transform="matrix(1,0,0,-1,506.6804,140.8416)" d="M 0 0 L -11.189 -3.73 L -137.996 -3.73 L -145.456 0 L -119.348 29.837 L -115.619 33.567 L -33.567 33.567 L -26.107 29.837 Z " fill="#e4e4e4"/>
<path transform="matrix(1,0,0,-1,387.3322,111.0045)" d="M 0 0 L -26.107 -29.837 L 108.159 -29.837 L 82.052 0 Z " fill="#dbdcda"/>
<path transform="matrix(1,0,0,-1,443.2767,96.086)" d="M 0 0 L 0 -3.73 L -18.648 -3.73 L -22.378 0 L -18.648 14.919 L -3.73 14.919 Z " fill="#adb1b1"/>
<path transform="matrix(1,0,0,-1,480.573,111.0045)" d="M 0 0 L -93.241 0 L -93.241 7.459 C -93.241 11.579 -89.901 14.919 -85.781 14.919 L -7.459 14.919 C -3.34 14.919 0 11.579 0 7.459 Z " fill="#f6d54f"/>
<path transform="matrix(1,0,0,-1,0,250)" d="M 424.629 142.725 L 439.548 142.725 L 439.548 101.699008 L 424.629 101.699008 Z " fill="#f6d54f"/>
<path transform="matrix(1,0,0,-1,0,250)" d="M 417.169 138.995 L 424.62803 138.995 L 424.62803 109.158 L 417.169 109.158 Z " fill="#e4e4e4"/>
<path transform="matrix(1,0,0,-1,543.9767,181.8675)" d="M 0 0 L -201.4 0 L -201.4 29.837 C -201.4 36.016 -196.39 41.026 -190.211 41.026 L -37.296 41.026 L 0 29.837 Z " fill="#f6d54f"/>
<path transform="matrix(1,0,0,-1,342.5767,178.13791)" d="M 0 0 L 201.4 0 C 205.519 0 208.859 -3.34 208.859 -7.459 C 208.859 -11.579 205.519 -14.919 201.4 -14.919 L 0 -14.919 C -4.119 -14.919 -7.459 -11.579 -7.459 -7.459 C -7.459 -3.34 -4.119 0 0 0 " fill="#dbdcda"/>
<path transform="matrix(1,0,0,-1,0,250)" d="M 409.71 97.97 L 417.169 97.97 L 417.169 90.511 L 409.71 90.511 Z " fill="#666f74"/>
<path transform="matrix(1,0,0,-1,0,250)" d="M 417.169 90.51 L 424.62803 90.51 L 424.62803 83.051 L 417.169 83.051 Z " fill="#666f74"/>
<path transform="matrix(1,0,0,-1,0,250)" d="M 424.629 97.97 L 432.088 97.97 L 432.088 90.511 L 424.629 90.511 Z " fill="#666f74"/>
<path transform="matrix(1,0,0,-1,0,250)" d="M 432.088 90.51 L 439.54704 90.51 L 439.54704 83.051 L 432.088 83.051 Z " fill="#666f74"/>
<path transform="matrix(1,0,0,-1,0,250)" d="M 439.547 97.97 L 447.006 97.97 L 447.006 90.511 L 439.547 90.511 Z " fill="#666f74"/>
<path transform="matrix(1,0,0,-1,0,250)" d="M 447.006 90.51 L 454.46504 90.51 L 454.46504 83.051 L 447.006 83.051 Z " fill="#666f74"/>
<path transform="matrix(1,0,0,-1,0,250)" d="M 454.466 97.97 L 461.92503 97.97 L 461.92503 90.511 L 454.466 90.511 Z " fill="#666f74"/>
<path transform="matrix(1,0,0,-1,0,250)" d="M 461.925 90.51 L 469.384 90.51 L 469.384 83.051 L 461.925 83.051 Z " fill="#666f74"/>
<path transform="matrix(1,0,0,-1,0,250)" d="M 469.384 97.97 L 476.84303 97.97 L 476.84303 90.511 L 469.384 90.511 Z " fill="#666f74"/>
<path transform="matrix(1,0,0,-1,353.7656,140.8416)" d="M 0 0 L 7.459 0 L 7.459 -11.189 C 7.459 -15.308 4.119 -18.648 0 -18.648 L -11.189 -18.648 L -11.189 -11.189 C -11.189 -5.01 -6.179 0 0 0 " fill="#b8e4f0"/>
<path transform="matrix(1,0,0,-1,394.7915,193.0564)" d="M 0 0 C 0 -10.3 -8.348 -18.648 -18.648 -18.648 C -28.947 -18.648 -37.296 -10.3 -37.296 0 C -37.296 10.298 -28.947 18.648 -18.648 18.648 C -8.348 18.648 0 10.298 0 0 " fill="#e4e4e4"/>
<path transform="matrix(1,0,0,-1,529.0582,193.0564)" d="M 0 0 C 0 -10.3 -8.348 -18.648 -18.648 -18.648 C -28.947 -18.648 -37.296 -10.3 -37.296 0 C -37.296 10.298 -28.947 18.648 -18.648 18.648 C -8.348 18.648 0 10.298 0 0 " fill="#e4e4e4"/>
<path transform="matrix(1,0,0,-1,376.1433,178.13791)" d="M 0 0 C -8.239 0 -14.919 -6.68 -14.919 -14.919 C -14.919 -23.159 -8.239 -29.837 0 -29.837 C 8.241 -29.837 14.919 -23.159 14.919 -14.919 C 14.919 -6.68 8.241 0 0 0 M 0 -37.296 C -12.358 -37.296 -22.378 -27.278 -22.378 -14.919 C -22.378 -2.56 -12.358 7.459 0 7.459 C 12.36 7.459 22.378 -2.56 22.378 -14.919 C 22.367 -27.273 12.354 -37.285 0 -37.296 " fill="#9c9fa0"/>
<path transform="matrix(1,0,0,-1,376.1433,200.5156)" d="M 0 0 C -4.119 0 -7.459 3.34 -7.459 7.459 C -7.459 11.579 -4.119 14.919 0 14.919 C 4.119 14.919 7.459 11.579 7.459 7.459 C 7.459 3.34 4.119 0 0 0 " fill="#d0d2d1"/>
<path transform="matrix(1,0,0,-1,510.41,178.13791)" d="M 0 0 C -8.239 0 -14.919 -6.68 -14.919 -14.919 C -14.919 -23.159 -8.239 -29.837 0 -29.837 C 8.241 -29.837 14.919 -23.159 14.919 -14.919 C 14.919 -6.68 8.241 0 0 0 M 0 -37.296 C -12.358 -37.296 -22.378 -27.278 -22.378 -14.919 C -22.378 -2.56 -12.358 7.459 0 7.459 C 12.36 7.459 22.378 -2.56 22.378 -14.919 C 22.367 -27.273 12.354 -37.285 0 -37.296 " fill="#9c9fa0"/>
<path transform="matrix(1,0,0,-1,510.41,200.5156)" d="M 0 0 C -4.119 0 -7.459 3.34 -7.459 7.459 C -7.459 11.579 -4.119 14.919 0 14.919 C 4.119 14.919 7.459 11.579 7.459 7.459 C 7.459 3.34 4.119 0 0 0 " fill="#d0d2d1"/>
<path transform="matrix(1,0,0,-1,383.6026,193.0564)" d="M 0 0 C 0 -4.119 -3.34 -7.459 -7.459 -7.459 C -11.579 -7.459 -14.919 -4.119 -14.919 0 C -14.919 4.119 -11.579 7.459 -7.459 7.459 C -3.34 7.459 0 4.119 0 0 " fill="#146eb1"/>
<path transform="matrix(1,0,0,-1,517.8693,193.0564)" d="M 0 0 C 0 -4.119 -3.34 -7.459 -7.459 -7.459 C -11.579 -7.459 -14.919 -4.119 -14.919 0 C -14.919 4.119 -11.579 7.459 -7.459 7.459 C -3.34 7.459 0 4.119 0 0 " fill="#146eb1"/>
<path transform="matrix(1,0,0,-1,543.9767,189.3268)" d="M 0 0 L -11.524 0 C -11.968 2.628 -12.881 5.154 -14.217 7.459 L 0 7.459 C 2.06 7.459 3.73 5.789 3.73 3.73 C 3.73 1.67 2.06 0 0 0 M -33.567 -18.648 C -41.805 -18.648 -48.485 -11.97 -48.485 -3.73 C -48.485 4.509 -41.805 11.189 -33.567 11.189 C -25.326 11.189 -18.648 4.509 -18.648 -3.73 C -18.648 -11.97 -25.326 -18.648 -33.567 -18.648 M -55.608 0 L -145.791 0 C -146.235 2.628 -147.147 5.154 -148.484 7.459 L -52.916 7.459 C -54.253 5.154 -55.165 2.628 -55.608 0 M -167.833 -18.648 C -176.072 -18.648 -182.752 -11.97 -182.752 -3.73 C -182.752 4.509 -176.072 11.189 -167.833 11.189 C -159.593 11.189 -152.915 4.509 -152.915 -3.73 C -152.915 -11.97 -159.593 -18.648 -167.833 -18.648 M -189.874 0 L -201.4 0 C -203.46 0 -205.13 1.67 -205.13 3.73 C -205.13 5.789 -203.46 7.459 -201.4 7.459 L -187.183 7.459 C -188.519 5.154 -189.432 2.628 -189.874 0 M -197.67 26.107 L -190.211 26.107 C -184.03 26.107 -179.022 31.115 -179.022 37.296 L -179.022 44.756 L -37.844 44.756 L -18.648 38.997 L -18.648 29.837 C -18.648 25.718 -15.308 22.378 -11.189 22.378 L -3.73 22.378 L -3.73 14.919 L -21.221 14.919 C -28.701 19.89 -38.433 19.89 -45.912 14.919 L -155.488 14.919 C -162.967 19.89 -172.699 19.89 -180.179 14.919 L -197.67 14.919 Z M -197.67 37.296 C -197.67 41.416 -194.33 44.756 -190.211 44.756 L -186.481 44.756 L -186.481 37.296 C -186.481 35.237 -188.151 33.567 -190.211 33.567 L -197.67 33.567 Z M -154.951 74.593 L -123.078 74.593 L -123.078 52.215 L -174.546 52.215 Z M -108.159 52.215 L -115.618 52.215 L -115.618 74.593 L -108.159 74.593 Z M -152.915 85.781 C -152.915 87.841 -151.245 89.511 -149.185 89.511 L -70.863 89.511 C -68.803 89.511 -67.133 87.841 -67.133 85.781 L -67.133 82.052 L -152.915 82.052 Z M -116.434 104.43 L -107.342 104.43 L -105.477 96.97 L -118.299 96.97 Z M -45.5 52.215 L -100.7 52.215 L -100.7 74.593 L -65.097 74.593 Z M -11.189 36.759 L -3.73 34.521 L -3.73 29.837 L -11.189 29.837 Z M 3.73 14.232 L 3.73 37.296 C 3.73 38.943 2.65 40.396 1.071 40.869 L -13.427 45.222 C -13.463 45.222 -13.509 45.244 -13.545 45.258 L -35.177 51.749 L -59.674 79.724 L -59.674 85.781 C -59.674 91.96 -64.682 96.97 -70.863 96.97 L -97.786 96.97 L -100.811 109.064 C -101.226 110.725 -102.718 111.889 -104.43 111.889 L -119.348 111.889 C -121.058 111.889 -122.55 110.725 -122.965 109.064 L -125.99 96.97 L -149.185 96.97 C -155.364 96.97 -160.374 91.96 -160.374 85.781 L -160.374 79.724 L -184.445 52.215 L -190.211 52.215 C -198.45 52.215 -205.13 45.535 -205.13 37.296 L -205.13 14.232 C -210.263 12.424 -213.345 7.175 -212.421 1.812 C -211.5 -3.553 -206.843 -7.47 -201.4 -7.459 L -189.874 -7.459 C -188.064 -18.222 -178.747 -26.104 -167.833 -26.104 C -156.919 -26.104 -147.601 -18.222 -145.791 -7.459 L -55.608 -7.459 C -53.797 -18.222 -44.481 -26.104 -33.567 -26.104 C -22.653 -26.104 -13.334 -18.222 -11.524 -7.459 L 0 -7.459 C 5.443 -7.47 10.1 -3.553 11.023 1.812 C 11.945 7.175 8.863 12.424 3.73 14.232 " fill="#146eb1"/>
<path transform="matrix(1,0,0,-1,0,250)" d="M 409.71 97.97 L 417.169 97.97 L 417.169 90.511 L 409.71 90.511 Z " fill="#146eb1"/>
<path transform="matrix(1,0,0,-1,0,250)" d="M 417.169 90.51 L 424.62803 90.51 L 424.62803 83.051 L 417.169 83.051 Z " fill="#146eb1"/>
<path transform="matrix(1,0,0,-1,0,250)" d="M 424.629 97.97 L 432.088 97.97 L 432.088 90.511 L 424.629 90.511 Z " fill="#146eb1"/>
<path transform="matrix(1,0,0,-1,0,250)" d="M 432.088 90.51 L 439.54704 90.51 L 439.54704 83.051 L 432.088 83.051 Z " fill="#146eb1"/>
<path transform="matrix(1,0,0,-1,0,250)" d="M 439.547 97.97 L 447.006 97.97 L 447.006 90.511 L 439.547 90.511 Z " fill="#146eb1"/>
<path transform="matrix(1,0,0,-1,0,250)" d="M 447.006 90.51 L 454.46504 90.51 L 454.46504 83.051 L 447.006 83.051 Z " fill="#146eb1"/>
<path transform="matrix(1,0,0,-1,0,250)" d="M 454.466 97.97 L 461.92503 97.97 L 461.92503 90.511 L 454.466 90.511 Z " fill="#146eb1"/>
<path transform="matrix(1,0,0,-1,0,250)" d="M 461.925 90.51 L 469.384 90.51 L 469.384 83.051 L 461.925 83.051 Z " fill="#146eb1"/>
<path transform="matrix(1,0,0,-1,0,250)" d="M 469.384 97.97 L 476.84303 97.97 L 476.84303 90.511 L 469.384 90.511 Z " fill="#146eb1"/>
<path transform="matrix(1,0,0,-1,307.8376,-127.795108)" d="M 0 0 C 136.099 -9.145 263.571 -47.358 378.95 -113.612 C 573.755 -225.494 777.565 -258.077 984.756 -210.477 C 913.977 -182.344 844.425 -143.828 777.142 -106.567 C 677.64 -51.464 583.655 .584 491.391 17.74 C 402.75 34.213 315.559 40.757 232.239 37.19 C 153.581 33.824 75.468 21.313 0 0 M 990.227 -210.844 C 1120.637 -261.779 1229.561 -265.436 1332.852 -222.396 C 1394.972 -196.516 1456.207 -152.495 1514.877 -91.557 C 1578.762 -25.205 1642.327 63.984 1703.805 173.53 C 1727.728 216.146 1752.333 256.725 1776.973 294.203 C 1684.226 233.168 1595.8 157.54 1493.609 70.138 C 1480.725 59.118 1467.581 47.877 1454.133 36.409 C 1305.856 -90.029 1149.787 -173.208 990.227 -210.844 M 1354.824 -214.236 C 1347.711 -217.685 1340.59 -220.895 1333.452 -223.871 C 1229.139 -267.337 1119.168 -263.413 987.372 -211.512 C 778.931 -259.997 573.916 -227.528 378.001 -115.009 C 261.547 -48.139 132.752 -9.887 -4.808 -1.316 L -4.699 -.509 L -4.898 .263 C 72.106 22.398 151.901 35.366 232.271 38.806 C 315.724 42.378 403.049 35.825 491.819 19.328 C 584.35 2.121 678.447 -49.988 778.068 -105.157 C 845.979 -142.766 916.197 -181.652 987.611 -209.816 C 1147.684 -172.511 1304.273 -89.274 1453.041 37.582 C 1466.487 49.047 1479.63 60.29 1492.514 71.308 C 1595.96 159.783 1685.297 236.193 1779.346 297.665 L 1779.797 297.008 L 1780.511 296.61 C 1755.189 258.281 1729.883 216.638 1705.298 172.841 C 1643.746 63.166 1580.091 -26.144 1516.1 -92.607 C 1463.992 -146.728 1409.834 -187.558 1354.824 -214.236 " fill="#8dd7f3"/>
<path transform="matrix(1,0,0,-1,1491.9727,140.8416)" d="M 0 0 L -11.189 -3.73 L -137.996 -3.73 L -145.456 0 L -119.348 29.837 L -115.619 33.567 L -33.567 33.567 L -26.107 29.837 Z " fill="#e4e4e4"/>
<path transform="matrix(1,0,0,-1,1372.6245,111.0045)" d="M 0 0 L -26.107 -29.837 L 108.159 -29.837 L 82.052 0 Z " fill="#dbdcda"/>
<path transform="matrix(1,0,0,-1,1428.569,96.086)" d="M 0 0 L 0 -3.73 L -18.648 -3.73 L -22.378 0 L -18.648 14.919 L -3.73 14.919 Z " fill="#adb1b1"/>
<path transform="matrix(1,0,0,-1,1465.8652,111.0045)" d="M 0 0 L -93.241 0 L -93.241 7.459 C -93.241 11.579 -89.901 14.919 -85.781 14.919 L -7.459 14.919 C -3.34 14.919 0 11.579 0 7.459 Z " fill="#f6d54f"/>
<path transform="matrix(1,0,0,-1,0,250)" d="M 1409.921 142.725 L 1424.84 142.725 L 1424.84 101.699008 L 1409.921 101.699008 Z " fill="#f6d54f"/>
<path transform="matrix(1,0,0,-1,0,250)" d="M 1402.462 138.995 L 1409.921 138.995 L 1409.921 109.158 L 1402.462 109.158 Z " fill="#e4e4e4"/>
<path transform="matrix(1,0,0,-1,1529.2689,181.8675)" d="M 0 0 L -201.4 0 L -201.4 29.837 C -201.4 36.016 -196.39 41.026 -190.211 41.026 L -37.296 41.026 L 0 29.837 Z " fill="#f6d54f"/>
<path transform="matrix(1,0,0,-1,1327.8689,178.13791)" d="M 0 0 L 201.4 0 C 205.519 0 208.859 -3.34 208.859 -7.459 C 208.859 -11.579 205.519 -14.919 201.4 -14.919 L 0 -14.919 C -4.119 -14.919 -7.459 -11.579 -7.459 -7.459 C -7.459 -3.34 -4.119 0 0 0 " fill="#dbdcda"/>
<path transform="matrix(1,0,0,-1,0,250)" d="M 1395.002 97.97 L 1402.4609 97.97 L 1402.4609 90.511 L 1395.002 90.511 Z " fill="#666f74"/>
<path transform="matrix(1,0,0,-1,0,250)" d="M 1402.462 90.51 L 1409.921 90.51 L 1409.921 83.051 L 1402.462 83.051 Z " fill="#666f74"/>
<path transform="matrix(1,0,0,-1,0,250)" d="M 1409.921 97.97 L 1417.38 97.97 L 1417.38 90.511 L 1409.921 90.511 Z " fill="#666f74"/>
<path transform="matrix(1,0,0,-1,0,250)" d="M 1417.38 90.51 L 1424.839 90.51 L 1424.839 83.051 L 1417.38 83.051 Z " fill="#666f74"/>
<path transform="matrix(1,0,0,-1,0,250)" d="M 1424.839 97.97 L 1432.298 97.97 L 1432.298 90.511 L 1424.839 90.511 Z " fill="#666f74"/>
<path transform="matrix(1,0,0,-1,0,250)" d="M 1432.299 90.51 L 1439.7579 90.51 L 1439.7579 83.051 L 1432.299 83.051 Z " fill="#666f74"/>
<path transform="matrix(1,0,0,-1,0,250)" d="M 1439.758 97.97 L 1447.217 97.97 L 1447.217 90.511 L 1439.758 90.511 Z " fill="#666f74"/>
<path transform="matrix(1,0,0,-1,0,250)" d="M 1447.217 90.51 L 1454.676 90.51 L 1454.676 83.051 L 1447.217 83.051 Z " fill="#666f74"/>
<path transform="matrix(1,0,0,-1,0,250)" d="M 1454.676 97.97 L 1462.135 97.97 L 1462.135 90.511 L 1454.676 90.511 Z " fill="#666f74"/>
<path transform="matrix(1,0,0,-1,1339.0579,140.8416)" d="M 0 0 L 7.459 0 L 7.459 -11.189 C 7.459 -15.308 4.119 -18.648 0 -18.648 L -11.189 -18.648 L -11.189 -11.189 C -11.189 -5.01 -6.179 0 0 0 " fill="#b8e4f0"/>
<path transform="matrix(1,0,0,-1,1380.0838,193.0564)" d="M 0 0 C 0 -10.3 -8.348 -18.648 -18.648 -18.648 C -28.947 -18.648 -37.296 -10.3 -37.296 0 C -37.296 10.298 -28.947 18.648 -18.648 18.648 C -8.348 18.648 0 10.298 0 0 " fill="#e4e4e4"/>
<path transform="matrix(1,0,0,-1,1514.3505,193.0564)" d="M 0 0 C 0 -10.3 -8.348 -18.648 -18.648 -18.648 C -28.947 -18.648 -37.296 -10.3 -37.296 0 C -37.296 10.298 -28.947 18.648 -18.648 18.648 C -8.348 18.648 0 10.298 0 0 " fill="#e4e4e4"/>
<path transform="matrix(1,0,0,-1,1361.4357,178.13791)" d="M 0 0 C -8.239 0 -14.919 -6.68 -14.919 -14.919 C -14.919 -23.159 -8.239 -29.837 0 -29.837 C 8.24 -29.837 14.918 -23.159 14.918 -14.919 C 14.918 -6.68 8.24 0 0 0 M 0 -37.296 C -12.358 -37.296 -22.378 -27.278 -22.378 -14.919 C -22.378 -2.56 -12.358 7.459 0 7.459 C 12.36 7.459 22.378 -2.56 22.378 -14.919 C 22.367 -27.273 12.354 -37.285 0 -37.296 " fill="#9c9fa0"/>
<path transform="matrix(1,0,0,-1,1361.4357,200.5156)" d="M 0 0 C -4.119 0 -7.459 3.34 -7.459 7.459 C -7.459 11.579 -4.119 14.919 0 14.919 C 4.119 14.919 7.459 11.579 7.459 7.459 C 7.459 3.34 4.119 0 0 0 " fill="#d0d2d1"/>
<path transform="matrix(1,0,0,-1,1495.7023,178.13791)" d="M 0 0 C -8.239 0 -14.918 -6.68 -14.918 -14.919 C -14.918 -23.159 -8.239 -29.837 0 -29.837 C 8.24 -29.837 14.919 -23.159 14.919 -14.919 C 14.919 -6.68 8.24 0 0 0 M 0 -37.296 C -12.358 -37.296 -22.378 -27.278 -22.378 -14.919 C -22.378 -2.56 -12.358 7.459 0 7.459 C 12.36 7.459 22.378 -2.56 22.378 -14.919 C 22.367 -27.273 12.354 -37.285 0 -37.296 " fill="#9c9fa0"/>
<path transform="matrix(1,0,0,-1,1495.7023,200.5156)" d="M 0 0 C -4.119 0 -7.459 3.34 -7.459 7.459 C -7.459 11.579 -4.119 14.919 0 14.919 C 4.119 14.919 7.459 11.579 7.459 7.459 C 7.459 3.34 4.119 0 0 0 " fill="#d0d2d1"/>
<path transform="matrix(1,0,0,-1,1368.8949,193.0564)" d="M 0 0 C 0 -4.119 -3.34 -7.459 -7.459 -7.459 C -11.579 -7.459 -14.919 -4.119 -14.919 0 C -14.919 4.119 -11.579 7.459 -7.459 7.459 C -3.34 7.459 0 4.119 0 0 " fill="#146eb1"/>
<path transform="matrix(1,0,0,-1,1503.1615,193.0564)" d="M 0 0 C 0 -4.119 -3.34 -7.459 -7.459 -7.459 C -11.579 -7.459 -14.918 -4.119 -14.918 0 C -14.918 4.119 -11.579 7.459 -7.459 7.459 C -3.34 7.459 0 4.119 0 0 " fill="#146eb1"/>
<path transform="matrix(1,0,0,-1,1529.2689,189.3268)" d="M 0 0 L -11.524 0 C -11.968 2.628 -12.881 5.154 -14.217 7.459 L 0 7.459 C 2.06 7.459 3.73 5.789 3.73 3.73 C 3.73 1.67 2.06 0 0 0 M -33.567 -18.648 C -41.805 -18.648 -48.485 -11.97 -48.485 -3.73 C -48.485 4.509 -41.805 11.189 -33.567 11.189 C -25.326 11.189 -18.648 4.509 -18.648 -3.73 C -18.648 -11.97 -25.326 -18.648 -33.567 -18.648 M -55.608 0 L -145.791 0 C -146.235 2.628 -147.147 5.154 -148.484 7.459 L -52.916 7.459 C -54.253 5.154 -55.165 2.628 -55.608 0 M -167.833 -18.648 C -176.072 -18.648 -182.752 -11.97 -182.752 -3.73 C -182.752 4.509 -176.072 11.189 -167.833 11.189 C -159.593 11.189 -152.915 4.509 -152.915 -3.73 C -152.915 -11.97 -159.593 -18.648 -167.833 -18.648 M -189.874 0 L -201.4 0 C -203.46 0 -205.13 1.67 -205.13 3.73 C -205.13 5.789 -203.46 7.459 -201.4 7.459 L -187.183 7.459 C -188.519 5.154 -189.432 2.628 -189.874 0 M -197.67 26.107 L -190.211 26.107 C -184.03 26.107 -179.022 31.115 -179.022 37.296 L -179.022 44.756 L -37.844 44.756 L -18.648 38.997 L -18.648 29.837 C -18.648 25.718 -15.308 22.378 -11.189 22.378 L -3.73 22.378 L -3.73 14.919 L -21.221 14.919 C -28.701 19.89 -38.433 19.89 -45.912 14.919 L -155.488 14.919 C -162.967 19.89 -172.699 19.89 -180.179 14.919 L -197.67 14.919 Z M -197.67 37.296 C -197.67 41.416 -194.33 44.756 -190.211 44.756 L -186.481 44.756 L -186.481 37.296 C -186.481 35.237 -188.151 33.567 -190.211 33.567 L -197.67 33.567 Z M -154.951 74.593 L -123.078 74.593 L -123.078 52.215 L -174.546 52.215 Z M -108.159 52.215 L -115.618 52.215 L -115.618 74.593 L -108.159 74.593 Z M -152.915 85.781 C -152.915 87.841 -151.245 89.511 -149.185 89.511 L -70.863 89.511 C -68.803 89.511 -67.133 87.841 -67.133 85.781 L -67.133 82.052 L -152.915 82.052 Z M -116.434 104.43 L -107.342 104.43 L -105.477 96.97 L -118.299 96.97 Z M -45.5 52.215 L -100.7 52.215 L -100.7 74.593 L -65.097 74.593 Z M -11.189 36.759 L -3.73 34.521 L -3.73 29.837 L -11.189 29.837 Z M 3.73 14.232 L 3.73 37.296 C 3.73 38.943 2.65 40.396 1.071 40.869 L -13.427 45.222 C -13.463 45.222 -13.509 45.244 -13.545 45.258 L -35.177 51.749 L -59.674 79.724 L -59.674 85.781 C -59.674 91.96 -64.682 96.97 -70.863 96.97 L -97.786 96.97 L -100.811 109.064 C -101.226 110.725 -102.718 111.889 -104.43 111.889 L -119.348 111.889 C -121.058 111.889 -122.55 110.725 -122.965 109.064 L -125.99 96.97 L -149.185 96.97 C -155.364 96.97 -160.374 91.96 -160.374 85.781 L -160.374 79.724 L -184.445 52.215 L -190.211 52.215 C -198.45 52.215 -205.13 45.535 -205.13 37.296 L -205.13 14.232 C -210.263 12.424 -213.345 7.175 -212.421 1.812 C -211.5 -3.553 -206.843 -7.47 -201.4 -7.459 L -189.874 -7.459 C -188.064 -18.222 -178.747 -26.104 -167.833 -26.104 C -156.919 -26.104 -147.601 -18.222 -145.791 -7.459 L -55.608 -7.459 C -53.797 -18.222 -44.481 -26.104 -33.567 -26.104 C -22.653 -26.104 -13.334 -18.222 -11.524 -7.459 L 0 -7.459 C 5.443 -7.47 10.1 -3.553 11.023 1.812 C 11.945 7.175 8.863 12.424 3.73 14.232 " fill="#146eb1"/>
<path transform="matrix(1,0,0,-1,0,250)" d="M 1395.002 97.97 L 1402.4609 97.97 L 1402.4609 90.511 L 1395.002 90.511 Z " fill="#146eb1"/>
<path transform="matrix(1,0,0,-1,0,250)" d="M 1402.462 90.51 L 1409.921 90.51 L 1409.921 83.051 L 1402.462 83.051 Z " fill="#146eb1"/>
<path transform="matrix(1,0,0,-1,0,250)" d="M 1409.921 97.97 L 1417.38 97.97 L 1417.38 90.511 L 1409.921 90.511 Z " fill="#146eb1"/>
<path transform="matrix(1,0,0,-1,0,250)" d="M 1417.38 90.51 L 1424.839 90.51 L 1424.839 83.051 L 1417.38 83.051 Z " fill="#146eb1"/>
<path transform="matrix(1,0,0,-1,0,250)" d="M 1424.839 97.97 L 1432.298 97.97 L 1432.298 90.511 L 1424.839 90.511 Z " fill="#146eb1"/>
<path transform="matrix(1,0,0,-1,0,250)" d="M 1432.299 90.51 L 1439.7579 90.51 L 1439.7579 83.051 L 1432.299 83.051 Z " fill="#146eb1"/>
<path transform="matrix(1,0,0,-1,0,250)" d="M 1439.758 97.97 L 1447.217 97.97 L 1447.217 90.511 L 1439.758 90.511 Z " fill="#146eb1"/>
<path transform="matrix(1,0,0,-1,0,250)" d="M 1447.217 90.51 L 1454.676 90.51 L 1454.676 83.051 L 1447.217 83.051 Z " fill="#146eb1"/>
<path transform="matrix(1,0,0,-1,0,250)" d="M 1454.676 97.97 L 1462.135 97.97 L 1462.135 90.511 L 1454.676 90.511 Z " fill="#146eb1"/>
</g>
</g>
</g>
</g>
</svg>
