<?xml version="1.0" encoding="UTF-8" standalone="no"?>
<!DOCTYPE svg PUBLIC "-//W3C//DTD SVG 1.1//EN" "http://www.w3.org/Graphics/SVG/1.1/DTD/svg11.dtd">
<svg xmlns="http://www.w3.org/2000/svg" xmlns:xlink="http://www.w3.org/1999/xlink" version="1.1" width="168.51pt" height="168.51pt" viewBox="0 0 168.51 168.51">
<g enable-background="new">
<g id="Layer-1" data-name="Capa 1">
<clipPath id="cp0">
<path transform="matrix(1,0,0,-1,0,168.51)" d="M 0 168.51 L 168.51 168.51 L 168.51 0 L 0 0 Z "/>
</clipPath>
<g clip-path="url(#cp0)">
<path transform="matrix(1,0,0,-1,168.5101,84.2549)" d="M 0 0 C 0 -46.533 -37.722 -84.255 -84.255 -84.255 C -130.788 -84.255 -168.51 -46.533 -168.51 0 C -168.51 46.533 -130.788 84.255 -84.255 84.255 C -37.722 84.255 0 46.533 0 0 " fill="#3096d2"/>
<path transform="matrix(1,0,0,-1,135.6817,125.579898)" d="M 0 0 C 0 -1.014 -.822 -1.837 -1.837 -1.837 L -101.017 -1.837 C -102.031 -1.837 -102.853 -1.014 -102.853 0 L -102.853 62.447 C -102.853 63.461 -102.031 64.283 -101.017 64.283 L -62.447 64.283 L -62.447 58.773 C -62.447 55.73 -59.98 53.263 -56.937 53.263 L -45.917 53.263 C -42.874 53.263 -40.407 55.73 -40.407 58.773 L -40.407 64.283 L -1.837 64.283 C -.822 64.283 0 63.461 0 62.447 Z M -58.773 84.487 L -44.08 84.487 L -44.08 58.773 C -44.08 57.759 -44.902 56.937 -45.917 56.937 L -56.937 56.937 C -57.951 56.937 -58.773 57.759 -58.773 58.773 Z M -1.837 67.957 L -40.407 67.957 L -40.407 88.16 L -62.447 88.16 L -62.447 67.957 L -101.017 67.957 C -104.06 67.957 -106.527 65.49 -106.527 62.447 L -106.527 0 C -106.527 -3.043 -104.06 -5.51 -101.017 -5.51 L -1.837 -5.51 C 1.206 -5.51 3.673 -3.043 3.673 0 L 3.673 62.447 C 3.673 65.49 1.206 67.957 -1.837 67.957 " fill="#ffffff"/>
<path transform="matrix(1,0,0,-1,59.2233,95.5834)" d="M 0 0 C 2.799 2.556 3.741 6.568 2.37 10.103 C 1 13.637 -2.401 15.966 -6.192 15.966 C -9.982 15.966 -13.383 13.637 -14.753 10.103 C -16.124 6.568 -15.182 2.556 -12.383 0 C -15.048 -1.236 -17.346 -3.145 -19.048 -5.54 L -19.048 19.594 L 6.665 19.594 L 6.665 -5.541 C 4.963 -3.146 2.665 -1.236 0 0 M -11.702 6.737 C -11.713 9.675 -9.417 12.105 -6.484 12.26 C -3.55 12.416 -1.01 10.242 -.71 7.321 C -.411 4.398 -2.457 1.754 -5.361 1.311 C -5.639 1.326 -5.913 1.357 -6.192 1.357 C -6.47 1.357 -6.742 1.326 -7.022 1.311 C -9.705 1.72 -11.691 4.022 -11.702 6.737 M 2.992 -15.303 L 2.992 -11.63 L -.682 -11.63 L -.682 -15.303 L -11.702 -15.303 L -11.702 -11.63 L -15.375 -11.63 L -15.375 -15.303 L -18.949 -15.303 C -18.198 -8.311 -13.202 -2.825 -7.036 -2.362 C -6.754 -2.387 -6.486 -2.447 -6.192 -2.447 C -5.897 -2.447 -5.629 -2.387 -5.347 -2.362 C .819 -2.825 5.815 -8.311 6.566 -15.303 Z M 6.665 23.267 L -19.048 23.267 C -21.077 23.267 -22.722 21.622 -22.722 19.594 L -22.722 -18.977 L 10.338 -18.977 L 10.338 19.594 C 10.338 21.622 8.694 23.267 6.665 23.267 " fill="#ffffff"/>
<path transform="matrix(1,0,0,-1,0,168.51)" d="M 40.175 50.277 L 65.888 50.277 L 65.888 46.604 L 40.175 46.604 Z " fill="#ffffff"/>
<path transform="matrix(1,0,0,-1,0,168.51)" d="M 82.418 87.01 L 128.33499 87.01 L 128.33499 83.337009 L 82.418 83.337009 Z M 128.335 90.683 L 82.418 90.683 C 80.39 90.683 78.745 89.039 78.745 87.01 L 78.745 83.337 C 78.745 81.308 80.39 79.663 82.418 79.663 L 128.335 79.663 C 130.364 79.663 132.008 81.308 132.008 83.337 L 132.008 87.01 C 132.008 89.039 130.364 90.683 128.335 90.683 " fill="#ffffff"/>
<path transform="matrix(1,0,0,-1,0,168.51)" d="M 82.418 72.317 L 128.33499 72.317 L 128.33499 68.644008 L 82.418 68.644008 Z M 128.335 75.99 L 82.418 75.99 C 80.39 75.99 78.745 74.345 78.745 72.317 L 78.745 68.643 C 78.745 66.615 80.39 64.97 82.418 64.97 L 128.335 64.97 C 130.364 64.97 132.008 66.615 132.008 68.643 L 132.008 72.317 C 132.008 74.345 130.364 75.99 128.335 75.99 " fill="#ffffff"/>
<path transform="matrix(1,0,0,-1,0,168.51)" d="M 82.418 61.297 L 128.33499 61.297 L 128.33499 57.624 L 82.418 57.624 Z " fill="#ffffff"/>
<path transform="matrix(1,0,0,-1,84.2551,47.679399)" d="M 0 0 C .42 0 .76 -.341 .76 -.76 C .76 -1.18 .42 -1.521 0 -1.521 C -.42 -1.521 -.76 -1.18 -.76 -.76 C -.76 -.341 -.42 0 0 0 M 0 -5.194 C 2.448 -5.194 4.434 -3.209 4.434 -.76 C 4.434 1.688 2.448 3.673 0 3.673 C -2.448 3.673 -4.434 1.688 -4.434 -.76 C -4.43 -3.208 -2.447 -5.191 0 -5.194 " fill="#ffffff"/>
</g>
</g>
</g>
</svg>
